<svg width="110" height="116" viewBox="0 0 110 116" fill="none" xmlns="http://www.w3.org/2000/svg">
<rect x="1" y="4" width="108" height="108" stroke="#828C45" stroke-width="2"/>
<path d="M22.1054 98.5889C38.2511 103.991 95.4704 88.3224 86.5473 16.3392C58.492 22.2332 6.32628 46.9349 22.1054 98.5889Z" stroke="#828C45" stroke-width="2"/>
<path d="M22 98.5C38.9312 84.7484 75.4349 49.0963 86 16.5" stroke="#828C45" stroke-width="2"/>
<path d="M34 88C39.3733 89.1541 52.096 91.0294 60 89.2983" stroke="#828C45" stroke-width="2"/>
<path d="M32.5 89.5C28.6666 86.6667 21.9 75.9 25.5 55.5" stroke="#828C45" stroke-width="2"/>
<path d="M47.5 75C42.8334 69.3333 35.5 53.5 43.5 35.5" stroke="#828C45" stroke-width="2"/>
<path d="M50 72C55.5 74.1667 69 76.5 79 68.5" stroke="#828C45" stroke-width="2"/>
<path d="M62 58C57.7308 53.9385 51.5311 41.6523 60.8863 25" stroke="#828C45" stroke-width="2"/>
<path d="M65.5 53C69.5 54.1667 79.2 54.8 86 48" stroke="#828C45" stroke-width="2"/>
<path d="M75 40C72.8334 36.8333 69.4 28.5 73 20.5" stroke="#828C45" stroke-width="2"/>
</svg>
